<mxfile host="Electron" agent="Mozilla/5.0 (Windows NT 10.0; Win64; x64) AppleWebKit/537.36 (KHTML, like Gecko) draw.io/24.7.5 Chrome/126.0.6478.183 Electron/31.3.0 Safari/537.36" version="24.7.5">
  <diagram name="第 1 页" id="2QriNIWdTIV_ohWtYcBS">
    <mxGraphModel dx="2571" dy="1187" grid="1" gridSize="10" guides="1" tooltips="1" connect="1" arrows="1" fold="1" page="1" pageScale="1" pageWidth="827" pageHeight="1169" math="1" shadow="0">
      <root>
        <mxCell id="0" />
        <mxCell id="1" parent="0" />
        <mxCell id="cwPCQVJeZr_FaRnFtmwM-8" value="RCNN" style="swimlane;whiteSpace=wrap;html=1;fillColor=#ffe6cc;strokeColor=#d79b00;" vertex="1" parent="1">
          <mxGeometry x="-820" y="780" width="280" height="280" as="geometry" />
        </mxCell>
        <mxCell id="cwPCQVJeZr_FaRnFtmwM-24" style="edgeStyle=orthogonalEdgeStyle;rounded=0;orthogonalLoop=1;jettySize=auto;html=1;entryX=0.5;entryY=0;entryDx=0;entryDy=0;" edge="1" parent="cwPCQVJeZr_FaRnFtmwM-8" source="cwPCQVJeZr_FaRnFtmwM-9" target="cwPCQVJeZr_FaRnFtmwM-12">
          <mxGeometry relative="1" as="geometry" />
        </mxCell>
        <mxCell id="cwPCQVJeZr_FaRnFtmwM-9" value="SS" style="rounded=1;whiteSpace=wrap;html=1;fillColor=#1ba1e2;fontColor=#ffffff;strokeColor=#006EAF;" vertex="1" parent="cwPCQVJeZr_FaRnFtmwM-8">
          <mxGeometry x="80" y="30" width="120" height="60" as="geometry" />
        </mxCell>
        <mxCell id="cwPCQVJeZr_FaRnFtmwM-25" style="edgeStyle=orthogonalEdgeStyle;rounded=0;orthogonalLoop=1;jettySize=auto;html=1;entryX=0.5;entryY=0;entryDx=0;entryDy=0;" edge="1" parent="cwPCQVJeZr_FaRnFtmwM-8" source="cwPCQVJeZr_FaRnFtmwM-12" target="cwPCQVJeZr_FaRnFtmwM-20">
          <mxGeometry relative="1" as="geometry" />
        </mxCell>
        <mxCell id="cwPCQVJeZr_FaRnFtmwM-12" value="CNN" style="rounded=1;whiteSpace=wrap;html=1;fillColor=#60a917;fontColor=#ffffff;strokeColor=#2D7600;" vertex="1" parent="cwPCQVJeZr_FaRnFtmwM-8">
          <mxGeometry x="80" y="110" width="120" height="60" as="geometry" />
        </mxCell>
        <mxCell id="cwPCQVJeZr_FaRnFtmwM-14" value="cls&lt;br&gt;(SVM)" style="rounded=1;whiteSpace=wrap;html=1;fillColor=#d80073;fontColor=#ffffff;strokeColor=#A50040;" vertex="1" parent="cwPCQVJeZr_FaRnFtmwM-8">
          <mxGeometry x="10" y="210" width="120" height="60" as="geometry" />
        </mxCell>
        <mxCell id="cwPCQVJeZr_FaRnFtmwM-20" value="bbox reg&lt;br&gt;(Least square)" style="rounded=1;whiteSpace=wrap;html=1;fillColor=#d80073;fontColor=#ffffff;strokeColor=#A50040;" vertex="1" parent="cwPCQVJeZr_FaRnFtmwM-8">
          <mxGeometry x="150" y="210" width="120" height="60" as="geometry" />
        </mxCell>
        <mxCell id="cwPCQVJeZr_FaRnFtmwM-26" style="edgeStyle=orthogonalEdgeStyle;rounded=0;orthogonalLoop=1;jettySize=auto;html=1;entryX=0.438;entryY=-0.004;entryDx=0;entryDy=0;entryPerimeter=0;" edge="1" parent="cwPCQVJeZr_FaRnFtmwM-8" source="cwPCQVJeZr_FaRnFtmwM-12" target="cwPCQVJeZr_FaRnFtmwM-14">
          <mxGeometry relative="1" as="geometry" />
        </mxCell>
        <mxCell id="cwPCQVJeZr_FaRnFtmwM-2" value="Training of Faster R-CNN" style="swimlane;whiteSpace=wrap;html=1;fillColor=#e1d5e7;strokeColor=default;swimlaneFillColor=none;gradientColor=none;rounded=0;glass=0;swimlaneLine=1;" vertex="1" parent="1">
          <mxGeometry x="-810" y="200" width="590" height="500" as="geometry">
            <mxRectangle x="-585" y="800" width="140" height="30" as="alternateBounds" />
          </mxGeometry>
        </mxCell>
        <mxCell id="BoxG3O7RYdr3jMfG4PqG-7" style="edgeStyle=orthogonalEdgeStyle;rounded=0;orthogonalLoop=1;jettySize=auto;html=1;entryX=0;entryY=0.5;entryDx=0;entryDy=0;" parent="1" source="BoxG3O7RYdr3jMfG4PqG-1" target="BoxG3O7RYdr3jMfG4PqG-2" edge="1">
          <mxGeometry relative="1" as="geometry" />
        </mxCell>
        <mxCell id="BoxG3O7RYdr3jMfG4PqG-1" value="Fore CNN" style="rounded=1;whiteSpace=wrap;html=1;fillColor=#ffff88;strokeColor=#36393d;" parent="1" vertex="1">
          <mxGeometry x="-590" y="240" width="120" height="60" as="geometry" />
        </mxCell>
        <mxCell id="BoxG3O7RYdr3jMfG4PqG-13" style="rounded=0;orthogonalLoop=1;jettySize=auto;html=1;" parent="1" source="BoxG3O7RYdr3jMfG4PqG-2" target="BoxG3O7RYdr3jMfG4PqG-12" edge="1">
          <mxGeometry relative="1" as="geometry" />
        </mxCell>
        <mxCell id="BoxG3O7RYdr3jMfG4PqG-2" value="RPN(conv+fc)" style="rounded=1;whiteSpace=wrap;html=1;fillColor=#0050ef;fontColor=#ffffff;strokeColor=#001DBC;" parent="1" vertex="1">
          <mxGeometry x="-350" y="240" width="120" height="60" as="geometry" />
        </mxCell>
        <mxCell id="BoxG3O7RYdr3jMfG4PqG-5" style="edgeStyle=orthogonalEdgeStyle;rounded=0;orthogonalLoop=1;jettySize=auto;html=1;entryX=0;entryY=0.5;entryDx=0;entryDy=0;" parent="1" source="BoxG3O7RYdr3jMfG4PqG-4" target="BoxG3O7RYdr3jMfG4PqG-1" edge="1">
          <mxGeometry relative="1" as="geometry" />
        </mxCell>
        <mxCell id="BoxG3O7RYdr3jMfG4PqG-4" value="ImaeNet pre-train&amp;nbsp;&lt;div&gt;cls- model&lt;/div&gt;" style="rounded=0;whiteSpace=wrap;html=1;fillColor=#d80073;fontColor=#ffffff;strokeColor=#A50040;" parent="1" vertex="1">
          <mxGeometry x="-790" y="240" width="120" height="60" as="geometry" />
        </mxCell>
        <mxCell id="BoxG3O7RYdr3jMfG4PqG-6" value="init" style="text;html=1;align=center;verticalAlign=middle;resizable=0;points=[];autosize=1;strokeColor=none;fillColor=none;" parent="1" vertex="1">
          <mxGeometry x="-650" y="240" width="40" height="30" as="geometry" />
        </mxCell>
        <mxCell id="BoxG3O7RYdr3jMfG4PqG-8" value="train alone" style="text;html=1;align=center;verticalAlign=middle;resizable=0;points=[];autosize=1;strokeColor=none;fillColor=none;" parent="1" vertex="1">
          <mxGeometry x="-460" y="240" width="80" height="30" as="geometry" />
        </mxCell>
        <mxCell id="BoxG3O7RYdr3jMfG4PqG-9" value="init" style="text;html=1;align=center;verticalAlign=middle;resizable=0;points=[];autosize=1;strokeColor=none;fillColor=none;" parent="1" vertex="1">
          <mxGeometry x="-650" y="350" width="40" height="30" as="geometry" />
        </mxCell>
        <mxCell id="BoxG3O7RYdr3jMfG4PqG-10" style="edgeStyle=orthogonalEdgeStyle;rounded=0;orthogonalLoop=1;jettySize=auto;html=1;entryX=0;entryY=0.5;entryDx=0;entryDy=0;" parent="1" source="BoxG3O7RYdr3jMfG4PqG-12" target="BoxG3O7RYdr3jMfG4PqG-11" edge="1">
          <mxGeometry relative="1" as="geometry" />
        </mxCell>
        <mxCell id="BoxG3O7RYdr3jMfG4PqG-15" style="edgeStyle=orthogonalEdgeStyle;rounded=0;orthogonalLoop=1;jettySize=auto;html=1;entryX=0;entryY=0.5;entryDx=0;entryDy=0;" parent="1" source="BoxG3O7RYdr3jMfG4PqG-11" target="BoxG3O7RYdr3jMfG4PqG-16" edge="1">
          <mxGeometry relative="1" as="geometry">
            <mxPoint x="-410" y="380" as="targetPoint" />
          </mxGeometry>
        </mxCell>
        <mxCell id="BoxG3O7RYdr3jMfG4PqG-11" value="Fore CNN" style="rounded=1;whiteSpace=wrap;html=1;fillColor=#ffff88;strokeColor=#36393d;" parent="1" vertex="1">
          <mxGeometry x="-590" y="350" width="120" height="60" as="geometry" />
        </mxCell>
        <mxCell id="BoxG3O7RYdr3jMfG4PqG-12" value="ImaeNet pre-train&amp;nbsp;&lt;div&gt;cls- model&lt;/div&gt;" style="rounded=0;whiteSpace=wrap;html=1;fillColor=#d80073;fontColor=#ffffff;strokeColor=#A50040;" parent="1" vertex="1">
          <mxGeometry x="-790" y="350" width="120" height="60" as="geometry" />
        </mxCell>
        <mxCell id="BoxG3O7RYdr3jMfG4PqG-14" value="fix RPN" style="text;html=1;align=center;verticalAlign=middle;resizable=0;points=[];autosize=1;strokeColor=none;fillColor=none;rotation=-15;" parent="1" vertex="1">
          <mxGeometry x="-550" y="300" width="60" height="30" as="geometry" />
        </mxCell>
        <mxCell id="BoxG3O7RYdr3jMfG4PqG-19" style="rounded=0;orthogonalLoop=1;jettySize=auto;html=1;" parent="1" source="BoxG3O7RYdr3jMfG4PqG-16" target="BoxG3O7RYdr3jMfG4PqG-18" edge="1">
          <mxGeometry relative="1" as="geometry" />
        </mxCell>
        <mxCell id="BoxG3O7RYdr3jMfG4PqG-16" value="Fast RCNN(conv+fc)" style="rounded=1;whiteSpace=wrap;html=1;fillColor=#008a00;fontColor=#ffffff;strokeColor=#005700;" parent="1" vertex="1">
          <mxGeometry x="-350" y="350" width="120" height="60" as="geometry" />
        </mxCell>
        <mxCell id="BoxG3O7RYdr3jMfG4PqG-17" value="train except RPN" style="text;html=1;align=center;verticalAlign=middle;resizable=0;points=[];autosize=1;strokeColor=none;fillColor=none;" parent="1" vertex="1">
          <mxGeometry x="-470" y="350" width="110" height="30" as="geometry" />
        </mxCell>
        <mxCell id="BoxG3O7RYdr3jMfG4PqG-22" style="edgeStyle=orthogonalEdgeStyle;rounded=0;orthogonalLoop=1;jettySize=auto;html=1;entryX=0;entryY=0.5;entryDx=0;entryDy=0;" parent="1" source="BoxG3O7RYdr3jMfG4PqG-18" target="BoxG3O7RYdr3jMfG4PqG-21" edge="1">
          <mxGeometry relative="1" as="geometry" />
        </mxCell>
        <mxCell id="BoxG3O7RYdr3jMfG4PqG-18" value="RPN(conv+fc)" style="rounded=1;whiteSpace=wrap;html=1;fillColor=#0050ef;fontColor=#ffffff;strokeColor=#001DBC;" parent="1" vertex="1">
          <mxGeometry x="-790" y="470" width="120" height="60" as="geometry" />
        </mxCell>
        <mxCell id="BoxG3O7RYdr3jMfG4PqG-20" value="fine tuning" style="text;html=1;align=center;verticalAlign=middle;resizable=0;points=[];autosize=1;strokeColor=none;fillColor=none;rotation=-15;" parent="1" vertex="1">
          <mxGeometry x="-590" y="420" width="80" height="30" as="geometry" />
        </mxCell>
        <mxCell id="BoxG3O7RYdr3jMfG4PqG-25" style="edgeStyle=orthogonalEdgeStyle;rounded=0;orthogonalLoop=1;jettySize=auto;html=1;entryX=0;entryY=0.5;entryDx=0;entryDy=0;" parent="1" source="BoxG3O7RYdr3jMfG4PqG-21" target="BoxG3O7RYdr3jMfG4PqG-24" edge="1">
          <mxGeometry relative="1" as="geometry" />
        </mxCell>
        <mxCell id="BoxG3O7RYdr3jMfG4PqG-21" value="Fore CNN" style="rounded=1;whiteSpace=wrap;html=1;fillColor=#ffff88;strokeColor=#36393d;" parent="1" vertex="1">
          <mxGeometry x="-590" y="470" width="120" height="60" as="geometry" />
        </mxCell>
        <mxCell id="BoxG3O7RYdr3jMfG4PqG-23" value="fix Fore CNN" style="text;html=1;align=center;verticalAlign=middle;resizable=0;points=[];autosize=1;strokeColor=none;fillColor=none;" parent="1" vertex="1">
          <mxGeometry x="-675" y="478" width="90" height="30" as="geometry" />
        </mxCell>
        <mxCell id="BoxG3O7RYdr3jMfG4PqG-30" style="rounded=0;orthogonalLoop=1;jettySize=auto;html=1;" parent="1" source="BoxG3O7RYdr3jMfG4PqG-24" target="BoxG3O7RYdr3jMfG4PqG-29" edge="1">
          <mxGeometry relative="1" as="geometry" />
        </mxCell>
        <mxCell id="BoxG3O7RYdr3jMfG4PqG-24" value="Fast RCNN(fc)" style="rounded=1;whiteSpace=wrap;html=1;fillColor=#008a00;fontColor=#ffffff;strokeColor=#005700;" parent="1" vertex="1">
          <mxGeometry x="-350" y="470" width="120" height="60" as="geometry" />
        </mxCell>
        <mxCell id="BoxG3O7RYdr3jMfG4PqG-26" value="fine tuning" style="text;html=1;align=center;verticalAlign=middle;resizable=0;points=[];autosize=1;strokeColor=none;fillColor=none;rotation=0;" parent="1" vertex="1">
          <mxGeometry x="-453" y="470" width="80" height="30" as="geometry" />
        </mxCell>
        <mxCell id="BoxG3O7RYdr3jMfG4PqG-32" style="edgeStyle=orthogonalEdgeStyle;rounded=0;orthogonalLoop=1;jettySize=auto;html=1;" parent="1" source="BoxG3O7RYdr3jMfG4PqG-29" edge="1">
          <mxGeometry relative="1" as="geometry">
            <mxPoint x="-470" y="650" as="targetPoint" />
          </mxGeometry>
        </mxCell>
        <mxCell id="BoxG3O7RYdr3jMfG4PqG-29" value="Fore CNN" style="rounded=1;whiteSpace=wrap;html=1;fillColor=#ffff88;strokeColor=#36393d;" parent="1" vertex="1">
          <mxGeometry x="-795" y="620" width="120" height="60" as="geometry" />
        </mxCell>
        <mxCell id="BoxG3O7RYdr3jMfG4PqG-31" value="Share conv between RPN &amp;amp; Fast RCNN" style="text;html=1;align=center;verticalAlign=middle;resizable=0;points=[];autosize=1;strokeColor=none;fillColor=none;rotation=-20;" parent="1" vertex="1">
          <mxGeometry x="-660" y="550" width="240" height="30" as="geometry" />
        </mxCell>
        <mxCell id="BoxG3O7RYdr3jMfG4PqG-33" value="Faster RCNN" style="rounded=1;whiteSpace=wrap;html=1;fillColor=#cce5ff;strokeColor=#36393d;" parent="1" vertex="1">
          <mxGeometry x="-470" y="620" width="120" height="60" as="geometry" />
        </mxCell>
        <mxCell id="BoxG3O7RYdr3jMfG4PqG-34" value="compose" style="text;html=1;align=center;verticalAlign=middle;resizable=0;points=[];autosize=1;strokeColor=none;fillColor=none;" parent="1" vertex="1">
          <mxGeometry x="-610" y="620" width="70" height="30" as="geometry" />
        </mxCell>
        <mxCell id="cwPCQVJeZr_FaRnFtmwM-29" value="Fast RCNN" style="swimlane;whiteSpace=wrap;html=1;fillColor=#ffe6cc;strokeColor=#d79b00;" vertex="1" parent="1">
          <mxGeometry x="-540" y="780" width="280" height="280" as="geometry" />
        </mxCell>
        <mxCell id="cwPCQVJeZr_FaRnFtmwM-30" style="edgeStyle=orthogonalEdgeStyle;rounded=0;orthogonalLoop=1;jettySize=auto;html=1;entryX=0.5;entryY=0;entryDx=0;entryDy=0;" edge="1" parent="cwPCQVJeZr_FaRnFtmwM-29" source="cwPCQVJeZr_FaRnFtmwM-31" target="cwPCQVJeZr_FaRnFtmwM-33">
          <mxGeometry relative="1" as="geometry" />
        </mxCell>
        <mxCell id="cwPCQVJeZr_FaRnFtmwM-31" value="SS" style="rounded=1;whiteSpace=wrap;html=1;fillColor=#1ba1e2;fontColor=#ffffff;strokeColor=#006EAF;" vertex="1" parent="cwPCQVJeZr_FaRnFtmwM-29">
          <mxGeometry x="80" y="30" width="120" height="60" as="geometry" />
        </mxCell>
        <mxCell id="cwPCQVJeZr_FaRnFtmwM-32" style="edgeStyle=orthogonalEdgeStyle;rounded=0;orthogonalLoop=1;jettySize=auto;html=1;entryX=0.5;entryY=0;entryDx=0;entryDy=0;" edge="1" parent="cwPCQVJeZr_FaRnFtmwM-29" source="cwPCQVJeZr_FaRnFtmwM-33" target="cwPCQVJeZr_FaRnFtmwM-35">
          <mxGeometry relative="1" as="geometry" />
        </mxCell>
        <mxCell id="cwPCQVJeZr_FaRnFtmwM-33" value="CNN" style="rounded=1;whiteSpace=wrap;html=1;fillColor=#60a917;fontColor=#ffffff;strokeColor=#2D7600;" vertex="1" parent="cwPCQVJeZr_FaRnFtmwM-29">
          <mxGeometry x="80" y="110" width="120" height="60" as="geometry" />
        </mxCell>
        <mxCell id="cwPCQVJeZr_FaRnFtmwM-34" value="cls&lt;br&gt;(fc1)" style="rounded=1;whiteSpace=wrap;html=1;fillColor=#d80073;fontColor=#ffffff;strokeColor=#A50040;" vertex="1" parent="cwPCQVJeZr_FaRnFtmwM-29">
          <mxGeometry x="10" y="210" width="120" height="60" as="geometry" />
        </mxCell>
        <mxCell id="cwPCQVJeZr_FaRnFtmwM-35" value="bbox reg&lt;br&gt;(fc2)" style="rounded=1;whiteSpace=wrap;html=1;fillColor=#d80073;fontColor=#ffffff;strokeColor=#A50040;" vertex="1" parent="cwPCQVJeZr_FaRnFtmwM-29">
          <mxGeometry x="150" y="210" width="120" height="60" as="geometry" />
        </mxCell>
        <mxCell id="cwPCQVJeZr_FaRnFtmwM-36" style="edgeStyle=orthogonalEdgeStyle;rounded=0;orthogonalLoop=1;jettySize=auto;html=1;entryX=0.438;entryY=-0.004;entryDx=0;entryDy=0;entryPerimeter=0;" edge="1" parent="cwPCQVJeZr_FaRnFtmwM-29" source="cwPCQVJeZr_FaRnFtmwM-33" target="cwPCQVJeZr_FaRnFtmwM-34">
          <mxGeometry relative="1" as="geometry" />
        </mxCell>
        <mxCell id="cwPCQVJeZr_FaRnFtmwM-37" value="Fast RCNN" style="swimlane;whiteSpace=wrap;html=1;fillColor=#ffe6cc;strokeColor=#d79b00;" vertex="1" parent="1">
          <mxGeometry x="-260" y="780" width="360" height="280" as="geometry" />
        </mxCell>
        <mxCell id="cwPCQVJeZr_FaRnFtmwM-55" value="" style="edgeStyle=orthogonalEdgeStyle;rounded=0;orthogonalLoop=1;jettySize=auto;html=1;" edge="1" parent="cwPCQVJeZr_FaRnFtmwM-37" source="cwPCQVJeZr_FaRnFtmwM-41" target="cwPCQVJeZr_FaRnFtmwM-54">
          <mxGeometry relative="1" as="geometry" />
        </mxCell>
        <mxCell id="cwPCQVJeZr_FaRnFtmwM-60" style="edgeStyle=orthogonalEdgeStyle;rounded=0;orthogonalLoop=1;jettySize=auto;html=1;entryX=0;entryY=0.5;entryDx=0;entryDy=0;" edge="1" parent="cwPCQVJeZr_FaRnFtmwM-37" source="cwPCQVJeZr_FaRnFtmwM-41" target="cwPCQVJeZr_FaRnFtmwM-52">
          <mxGeometry relative="1" as="geometry" />
        </mxCell>
        <mxCell id="cwPCQVJeZr_FaRnFtmwM-41" value="CNN" style="rounded=1;whiteSpace=wrap;html=1;fillColor=#60a917;fontColor=#ffffff;strokeColor=#2D7600;" vertex="1" parent="cwPCQVJeZr_FaRnFtmwM-37">
          <mxGeometry x="30" y="50" width="120" height="60" as="geometry" />
        </mxCell>
        <mxCell id="cwPCQVJeZr_FaRnFtmwM-42" value="cls&lt;br&gt;(fc1)" style="rounded=1;whiteSpace=wrap;html=1;fillColor=#d80073;fontColor=#ffffff;strokeColor=#A50040;" vertex="1" parent="cwPCQVJeZr_FaRnFtmwM-37">
          <mxGeometry x="10" y="210" width="120" height="60" as="geometry" />
        </mxCell>
        <mxCell id="cwPCQVJeZr_FaRnFtmwM-43" value="bbox reg&lt;br&gt;(fc2)" style="rounded=1;whiteSpace=wrap;html=1;fillColor=#d80073;fontColor=#ffffff;strokeColor=#A50040;" vertex="1" parent="cwPCQVJeZr_FaRnFtmwM-37">
          <mxGeometry x="180" y="210" width="120" height="60" as="geometry" />
        </mxCell>
        <mxCell id="cwPCQVJeZr_FaRnFtmwM-56" style="edgeStyle=orthogonalEdgeStyle;rounded=0;orthogonalLoop=1;jettySize=auto;html=1;entryX=1;entryY=0.5;entryDx=0;entryDy=0;" edge="1" parent="cwPCQVJeZr_FaRnFtmwM-37" source="cwPCQVJeZr_FaRnFtmwM-52" target="cwPCQVJeZr_FaRnFtmwM-54">
          <mxGeometry relative="1" as="geometry">
            <Array as="points">
              <mxPoint x="280" y="170" />
            </Array>
          </mxGeometry>
        </mxCell>
        <mxCell id="cwPCQVJeZr_FaRnFtmwM-52" value="RPN" style="rounded=1;whiteSpace=wrap;html=1;fillColor=#1ba1e2;fontColor=#ffffff;strokeColor=#006EAF;" vertex="1" parent="cwPCQVJeZr_FaRnFtmwM-37">
          <mxGeometry x="220" y="50" width="120" height="60" as="geometry" />
        </mxCell>
        <mxCell id="cwPCQVJeZr_FaRnFtmwM-57" style="edgeStyle=orthogonalEdgeStyle;rounded=0;orthogonalLoop=1;jettySize=auto;html=1;" edge="1" parent="cwPCQVJeZr_FaRnFtmwM-37" source="cwPCQVJeZr_FaRnFtmwM-54" target="cwPCQVJeZr_FaRnFtmwM-42">
          <mxGeometry relative="1" as="geometry">
            <Array as="points">
              <mxPoint x="70" y="170" />
            </Array>
          </mxGeometry>
        </mxCell>
        <mxCell id="cwPCQVJeZr_FaRnFtmwM-59" style="edgeStyle=orthogonalEdgeStyle;rounded=0;orthogonalLoop=1;jettySize=auto;html=1;entryX=0;entryY=0.5;entryDx=0;entryDy=0;" edge="1" parent="cwPCQVJeZr_FaRnFtmwM-37" source="cwPCQVJeZr_FaRnFtmwM-54" target="cwPCQVJeZr_FaRnFtmwM-43">
          <mxGeometry relative="1" as="geometry">
            <Array as="points">
              <mxPoint x="140" y="240" />
            </Array>
          </mxGeometry>
        </mxCell>
        <mxCell id="cwPCQVJeZr_FaRnFtmwM-54" value="" style="ellipse;whiteSpace=wrap;html=1;aspect=fixed;" vertex="1" parent="cwPCQVJeZr_FaRnFtmwM-37">
          <mxGeometry x="130" y="160" width="20" height="20" as="geometry" />
        </mxCell>
      </root>
    </mxGraphModel>
  </diagram>
</mxfile>
